<?xml version="1.0" encoding="UTF-8"?>
<svg version="1.2" baseProfile="tiny" xmlns="http://www.w3.org/2000/svg" xmlns:xlink="http://www.w3.org/1999/xlink" xml:space="preserve" viewBox="0 0 1254 1254" width="1254" height="1254">
  <title>Kshitij Gupta</title>
  <!-- Solid background (required for BIMI) -->
  <rect width="1254" height="1254" fill="#FDFDFD"/>
  <!-- Outer circle brand mark background -->
  <path d="M0 0 C0.79991364 0.00060425 1.59982727 0.0012085 2.42398071 0.00183105 C34.36282952 0.0665525 68.42882691 1.15521601 99.42089844 9.64892578 C102.76567037 10.51536153 106.14553493 11.21463847 109.52270508 11.94238281 C119.78847156 14.1742622 129.76548942 16.89095004 139.71728516 20.24951172 C141.73551505 20.92980995 143.7563815 21.60230235 145.77880859 22.27001953 C162.42275668 27.76910112 178.5807726 33.85063628 194.5 41.1875 C195.81291016 41.78232178 195.81291016 41.78232178 197.15234375 42.38916016 C228.73809992 56.72125569 258.50472533 75.40212098 285.5 97.1875 C286.4796875 97.96867187 287.459375 98.74984375 288.46875 99.5546875 C291.17133791 101.73694958 293.84082172 103.95257808 296.5 106.1875 C297.0475293 106.64479492 297.59505859 107.10208984 298.15917969 107.57324219 C305.16217459 113.43289098 311.88267916 119.40313394 318.26171875 125.94921875 C320.32961756 128.01711756 322.45711676 129.92328436 324.6875 131.8125 C328.01983882 134.66498203 330.82974202 137.7537882 333.66015625 141.09765625 C335.63761436 143.34381356 337.72961266 145.41410347 339.875 147.5 C343.94384619 151.52073483 347.55052692 155.78133279 351.12109375 160.24609375 C353.21521526 162.835377 355.36004562 165.36078548 357.53881836 167.87792969 C363.67901244 174.99879711 369.20389178 182.42265187 374.5 190.1875 C375.04591797 190.98784668 375.59183594 191.78819336 376.15429688 192.61279297 C383.61833246 203.60059563 390.89084416 214.66261621 397.5 226.1875 C397.88043457 226.84685547 398.26086914 227.50621094 398.65283203 228.18554688 C438.03363211 296.74386658 460.31273355 375.30062428 459.9375 454.5 C459.93448948 455.86287377 459.93175619 457.22574818 459.92929077 458.58862305 C459.87555921 479.95220784 458.95983779 501.02654504 455.80072021 522.17407227 C455.49885716 524.19515175 455.20695815 526.21748687 454.91650391 528.24023438 C448.14668264 574.84894047 433.96885072 619.78191285 413.5 662.1875 C412.85780518 663.52748047 412.85780518 663.52748047 412.20263672 664.89453125 C406.53106879 676.67847386 400.37070579 688.06105853 393.5 699.1875 C392.95794922 700.06760742 392.41589844 700.94771484 391.85742188 701.85449219 C384.91217122 713.07941406 377.80374265 723.92105454 369.5 734.1875 C368.39311722 735.62290963 367.28877544 737.06028382 366.1875 738.5 C358.17616135 748.75451347 350.03985247 758.85035316 341.1328125 768.34375 C339.16373828 770.47058387 337.26731208 772.61735491 335.3828125 774.81640625 C331.04812775 779.78961482 326.41267829 784.46088515 321.74951172 789.12329102 C320.26106763 790.61391615 318.78082723 792.11237017 317.30078125 793.61132812 C311.81757296 799.12650018 306.18843349 804.23146655 300.09838867 809.08618164 C297.61827244 811.09185301 295.24343652 813.17260139 292.87890625 815.3125 C267.71847946 837.890511 237.02975934 856.7327455 206.55517578 871.20263672 C204.30527626 872.2808138 202.07288337 873.39125141 199.83984375 874.50390625 C177.2068013 885.67455044 153.73199919 894.21488212 129.5 901.1875 C128.56526855 901.46432617 127.63053711 901.74115234 126.66748047 902.02636719 C112.42667059 906.24341716 98.08483318 909.13821154 83.45556641 911.66455078 C81.0173963 912.09595342 78.59285085 912.55926683 76.16796875 913.05859375 C-10.42903465 930.27097445 -105.3312413 913.24459447 -246.5625 841.87109375 C-265.70883264 829.05180964 -283.49347707 814.71289496 -300.5 799.1875 C-301.42167969 798.35863281 -302.34335937 797.52976562 -303.29296875 796.67578125 C-313.26539867 787.65185193 -323.16822855 778.37096329 -331.87109375 768.09765625 C-333.82237716 765.8094606 -335.84817687 763.5965094 -337.875 761.375 C-342.60551989 756.1259577 -347.07458558 750.69468238 -351.5 745.1875 C-351.98436523 744.58679688 -352.46873047 743.98609375 -352.96777344 743.3671875 C-363.41882413 730.40342343 -363.41882413 730.40342343 -368.03125 724.1015625 C-369.13308447 722.66566119 -370.28854979 721.27065441 -371.46875 719.8984375 C-397.88587047 689.10946963 -413.35078831 648.0743513 -426.5 610.1875 C-426.87108887 609.12885742 -427.24217773 608.07021484 -427.62451172 606.97949219 C-450.37071963 541.47796402 -459.16317958 465.18657224 -446.91650391 396.67138672 C-446.45574149 393.92355742 -446.0727447 391.17117698 -445.69921875 388.41015625 C-438.88241324 338.84468202 -421.94052649 291.72759615 -399.5 247.1875 C-399.06413574 246.31464355 -398.62827148 245.44178711 -398.17919922 244.54248047 C-389.03224757 226.30520296 -377.30052522 209.7816839 -365.5 193.1875 C-364.63592529 191.96885254 -364.63592529 191.96885254 -363.75439453 190.72558594 C-357.2845395 181.61523625 -350.69033626 172.74426547 -343.5 164.1875 C-341.95767783 162.27136077 -340.41601595 160.35468988 -338.875 158.4375 C-335.84739728 154.73184042 -332.72866343 151.27993657 -329.27905273 147.9675293 C-327.51817119 146.20568116 -325.90204976 144.37852623 -324.28515625 142.484375 C-320.54803704 138.18540537 -316.60078603 134.13992082 -312.5625 130.125 C-311.89798828 129.45662109 -311.23347656 128.78824219 -310.54882812 128.09960938 C-306.58949846 124.14796028 -302.51945102 120.38440691 -298.28393555 116.73071289 C-296.10451843 114.84538436 -293.99179391 112.89264783 -291.875 110.9375 C-286.27399595 105.89062877 -280.38767565 101.26803485 -274.41699219 96.671875 C-272.4775928 95.17014954 -270.55451963 93.64927847 -268.6328125 92.125 C-232.27888359 63.51667287 -190.47122194 41.88410294 -147.10400391 26.13623047 C-144.93239732 25.34503759 -142.76741673 24.53972912 -140.60546875 23.72265625 C-111.9404725 13.07954377 -80.86267333 6.49382602 -50.5 3.1875 C-48.90083249 2.99653524 -47.30187128 2.80383475 -45.703125 2.609375 C-30.46774408 0.80149535 -15.33261427 -0.02168431 0 0 Z " fill="#FCFCFC" transform="translate(622.5,158.8125)"/>
  <!-- Outer circle border -->
  <path d="M0 0 C0.79991364 0.00060425 1.59982727 0.0012085 2.42398071 0.00183105 C34.36282952 0.0665525 68.42882691 1.15521601 99.42089844 9.64892578 C102.76567037 10.51536153 106.14553493 11.21463847 109.52270508 11.94238281 C119.78847156 14.1742622 129.76548942 16.89095004 139.71728516 20.24951172 C141.73551505 20.92980995 143.7563815 21.60230235 145.77880859 22.27001953 C162.42275668 27.76910112 178.5807726 33.85063628 194.5 41.1875 C195.81291016 41.78232178 195.81291016 41.78232178 197.15234375 42.38916016 C228.73809992 56.72125569 258.50472533 75.40212098 285.5 97.1875 C286.4796875 97.96867187 287.459375 98.74984375 288.46875 99.5546875 C291.17133791 101.73694958 293.84082172 103.95257808 296.5 106.1875 C297.0475293 106.64479492 297.59505859 107.10208984 298.15917969 107.57324219 C305.16217459 113.43289098 311.88267916 119.40313394 318.26171875 125.94921875 C320.32961756 128.01711756 322.45711676 129.92328436 324.6875 131.8125 C328.01983882 134.66498203 330.82974202 137.7537882 333.66015625 141.09765625 C335.63761436 143.34381356 337.72961266 145.41410347 339.875 147.5 C343.94384619 151.52073483 347.55052692 155.78133279 351.12109375 160.24609375 C353.21521526 162.835377 355.36004562 165.36078548 357.53881836 167.87792969 C363.67901244 174.99879711 369.20389178 182.42265187 374.5 190.1875 C375.04591797 190.98784668 375.59183594 191.78819336 376.15429688 192.61279297 C383.61833246 203.60059563 390.89084416 214.66261621 397.5 226.1875 C397.88043457 226.84685547 398.26086914 227.50621094 398.65283203 228.18554688 C438.03363211 296.74386658 460.31273355 375.30062428 459.9375 454.5 C459.93448948 455.86287377 459.93175619 457.22574818 459.92929077 458.58862305 C459.87555921 479.95220784 458.95983779 501.02654504 455.80072021 522.17407227 C455.49885716 524.19515175 455.20695815 526.21748687 454.91650391 528.24023438 C448.14668264 574.84894047 433.96885072 619.78191285 413.5 662.1875 C412.85780518 663.52748047 412.85780518 663.52748047 412.20263672 664.89453125 C406.53106879 676.67847386 400.37070579 688.06105853 393.5 699.1875 C392.95794922 700.06760742 392.41589844 700.94771484 391.85742188 701.85449219 C384.91217122 713.07941406 377.80374265 723.92105454 369.5 734.1875 C368.39311722 735.62290963 367.28877544 737.06028382 366.1875 738.5 C358.17616135 748.75451347 350.03985247 758.85035316 341.1328125 768.34375 C339.16373828 770.47058387 337.26731208 772.61735491 335.3828125 774.81640625 C331.04812775 779.78961482 326.41267829 784.46088515 321.74951172 789.12329102 C320.26106763 790.61391615 318.78082723 792.11237017 317.30078125 793.61132812 C311.81757296 799.12650018 306.18843349 804.23146655 300.09838867 809.08618164 C297.61827244 811.09185301 295.24343652 813.17260139 292.87890625 815.3125 C267.71847946 837.890511 237.02975934 856.7327455 206.55517578 871.20263672 C204.30527626 872.2808138 202.07288337 873.39125141 199.83984375 874.50390625 C177.2068013 885.67455044 153.73199919 894.21488212 129.5 901.1875 C128.56526855 901.46432617 127.63053711 901.74115234 126.66748047 902.02636719 C112.42667059 906.24341716 98.08483318 909.13821154 83.45556641 911.66455078 C81.0173963 912.09595342 78.59285085 912.55926683 76.16796875 913.05859375 C-10.42903465 930.27097445 -105.3312413 913.24459447 -246.5625 841.87109375 C-265.70883264 829.05180964 -283.49347707 814.71289496 -300.5 799.1875 C-301.42167969 798.35863281 -302.34335937 797.52976562 -303.29296875 796.67578125 C-313.26539867 787.65185193 -323.16822855 778.37096329 -331.87109375 768.09765625 C-333.82237716 765.8094606 -335.84817687 763.5965094 -337.875 761.375 C-342.60551989 756.1259577 -347.07458558 750.69468238 -351.5 745.1875 C-351.98436523 744.58679688 -352.46873047 743.98609375 -352.96777344 743.3671875 C-363.41882413 730.40342343 -363.41882413 730.40342343 -368.03125 724.1015625 C-369.13308447 722.66566119 -370.28854979 721.27065441 -371.46875 719.8984375 C-397.88587047 689.10946963 -413.35078831 648.0743513 -426.5 610.1875 C-426.87108887 609.12885742 -427.24217773 608.07021484 -427.62451172 606.97949219 C-450.37071963 541.47796402 -459.16317958 465.18657224 -446.91650391 396.67138672 C-446.45574149 393.92355742 -446.0727447 391.17117698 -445.69921875 388.41015625 C-438.88241324 338.84468202 -421.94052649 291.72759615 -399.5 247.1875 C-399.06413574 246.31464355 -398.62827148 245.44178711 -398.17919922 244.54248047 C-389.03224757 226.30520296 -377.30052522 209.7816839 -365.5 193.1875 C-364.63592529 191.96885254 -364.63592529 191.96885254 -363.75439453 190.72558594 C-357.2845395 181.61523625 -350.69033626 172.74426547 -343.5 164.1875 C-341.95767783 162.27136077 -340.41601595 160.35468988 -338.875 158.4375 C-335.84739728 154.73184042 -332.72866343 151.27993657 -329.27905273 147.9675293 C-327.51817119 146.20568116 -325.90204976 144.37852623 -324.28515625 142.484375 C-320.54803704 138.18540537 -316.60078603 134.13992082 -312.5625 130.125 C-311.89798828 129.45662109 -311.23347656 128.78824219 -310.54882812 128.09960938 C-306.58949846 124.14796028 -302.51945102 120.38440691 -298.28393555 116.73071289 C-296.10451843 114.84538436 -293.99179391 112.89264783 -291.875 110.9375 C-286.27399595 105.89062877 -280.38767565 101.26803485 -274.41699219 96.671875 C-272.4775928 95.17014954 -270.55451963 93.64927847 -268.6328125 92.125 C-232.27888359 63.51667287 -190.47122194 41.88410294 -147.10400391 26.13623047 C-144.93239732 25.34503759 -142.76741673 24.53972912 -140.60546875 23.72265625 C-111.9404725 13.07954377 -80.86267333 6.49382602 -50.5 3.1875 C-48.90083249 2.99653524 -47.30187128 2.80383475 -45.703125 2.609375 C-30.46774408 0.80149535 -15.33261427 -0.02168431 0 0 Z M-47.5 48.1875 C-48.6024707 48.33356689 -49.70494141 48.47963379 -50.84082031 48.63012695 C-53.56943831 49.02525343 -56.28376458 49.4651879 -59 49.9375 C-59.98154053 50.10596436 -60.96308105 50.27442871 -61.97436523 50.44799805 C-82.55254116 54.06824763 -102.65310567 58.64369352 -122.5 65.1875 C-124.03406494 65.68008301 -124.03406494 65.68008301 -125.59912109 66.18261719 C-142.52733374 71.63297888 -158.50660453 78.43397343 -174.5 86.1875 C-175.97086887 86.88383851 -177.44216476 87.57927643 -178.9140625 88.2734375 C-208.88642355 102.60496347 -236.6639666 122.21416266 -261.5 144.1875 C-262.428125 145.00347656 -263.35625 145.81945312 -264.3125 146.66015625 C-268.89185214 150.72991585 -273.28173931 154.92697609 -277.57421875 159.296875 C-279.46145257 161.14965628 -281.41715732 162.85696417 -283.4375 164.5625 C-287.33017702 167.91747261 -290.69932851 171.60907771 -294.08984375 175.46484375 C-296.18588259 177.83265424 -298.32650293 180.14883442 -300.49023438 182.45458984 C-306.94451698 189.36631632 -312.78988079 196.65496288 -318.5 204.1875 C-319.30244141 205.23719971 -319.30244141 205.23719971 -320.12109375 206.30810547 C-334.77116159 225.52997566 -347.30585456 245.78018318 -358.5 267.1875 C-358.87318359 267.89535645 -359.24636719 268.60321289 -359.63085938 269.33251953 C-387.3585781 322.17385216 -405.60300426 385.14602712 -405.66796875 445.1796875 C-405.67129715 446.28692169 -405.67462555 447.39415588 -405.67805481 448.53494263 C-405.68308377 450.86606435 -405.68546439 453.19719317 -405.68530273 455.52832031 C-405.68747296 459.01900738 -405.70562784 462.50936928 -405.72460938 466 C-405.77729958 486.18106438 -404.22853815 505.86581938 -400.8125 525.75 C-400.68372467 526.50965057 -400.55494934 527.26930115 -400.42227173 528.05197144 C-391.70509501 579.1591281 -373.80359766 627.54247477 -347.5 672.1875 C-347.05124512 672.9496582 -346.60249023 673.71181641 -346.14013672 674.49707031 C-336.43076681 690.83750278 -324.63549534 705.59948311 -312.5 720.1875 C-311.7579834 721.08033691 -311.7579834 721.08033691 -311.00097656 721.99121094 C-297.9876963 737.57759137 -284.13038993 753.1214299 -268.65625 766.3125 C-266.43734332 768.24198407 -264.28073511 770.23170191 -262.12768555 772.23413086 C-256.7907365 777.1898098 -251.33822535 781.83087867 -245.5 786.1875 C-244.30406456 787.10074731 -243.10881221 788.01488951 -241.9140625 788.9296875 C-194.44287346 825.12412835 -139.75194291 850.30643657 -81.5 863.1875 C-80.571875 863.39761719 -79.64375 863.60773437 -78.6875 863.82421875 C-12.79203819 878.59697853 56.80619922 875.18508035 121.16894531 854.91601562 C123.1439226 854.29878351 125.12957583 853.7158733 127.1171875 853.140625 C191.5699404 834.4444066 248.99085128 796.46034029 296.28604126 749.57568359 C297.70416111 748.17042322 299.12582674 746.76874388 300.54760742 745.3671875 C305.87584893 740.04516778 310.80773976 734.56845105 315.48803711 728.66699219 C317.50561874 726.18057561 319.62452017 723.83686293 321.8125 721.5 C337.56075589 704.1198005 351.05046654 683.61325809 362.5 663.1875 C363.07645264 662.1680127 363.07645264 662.1680127 363.66455078 661.12792969 C375.73490328 639.5886356 384.5391141 616.50893638 392.5 593.1875 C392.81952637 592.26018066 393.13905273 591.33286133 393.46826172 590.37744141 C398.20464772 576.5198604 401.7933374 562.51271122 404.85205078 548.19482422 C405.41704681 545.57251031 406.01368049 542.9603578 406.62109375 540.34765625 C416.27215176 496.90184831 416.8339538 448.7647182 409.28125 405 C408.60091649 401.0191296 408.10000347 397.0270278 407.6015625 393.01953125 C406.61337706 385.52221129 405.12374789 378.22859554 403.375 370.875 C403.22382721 370.23509125 403.07265442 369.5951825 402.91690063 368.93588257 C384.41942543 290.99158088 344.83562119 218.61474416 288.3125 161.875 C287.46888916 161.02671631 286.62527832 160.17843262 285.75610352 159.30444336 C280.83141585 154.39232731 275.79399251 149.69772704 270.5 145.1875 C269.4787909 144.2986086 268.45793151 143.4093152 267.4375 142.51953125 C207.39879302 91.02356582 133.86731356 60.65028355 56.125 48.875 C55.08794922 48.71572021 54.05089844 48.55644043 52.98242188 48.39233398 C36.66783933 46.03627357 20.3437352 46.00108977 3.89306641 46.00219727 C0.27103886 46.00001269 -3.35068233 45.98179856 -6.97265625 45.96289062 C-20.60509495 45.9294618 -33.98013724 46.39249114 -47.5 48.1875 Z " fill="#090909" transform="translate(622.5,158.8125)"/>
  <!-- K letterform / brand mark -->
  <path d="M0 0 C41.91 0 83.82 0 127 0 C127 2 127 2 125.0625 4.125 C122.66088838 6.44497044 120.14365133 8.62105807 117.625 10.8125 C114.01659333 13.98623062 110.90911778 17.32932903 107.81640625 20.99609375 C105.14621428 23.94191844 102.13882214 26.45524314 99.13671875 29.0546875 C96.6791095 31.29214528 94.56398139 33.67504784 92.484375 36.26171875 C90.45421155 38.639147 88.2152887 40.79691646 86 43 C84.61293026 44.38636767 83.22625004 45.77312511 81.83984375 47.16015625 C63.91992188 65.08007812 63.91992188 65.08007812 46 83 C45.27066537 83.72947342 44.54133074 84.45894684 43.78989506 85.21052551 C40.61938093 88.38056169 37.44753678 91.54926357 34.27549744 94.71777344 C32.89752879 96.09427561 31.51956368 97.47078133 30.14160156 98.84729004 C29.40945938 99.57865677 28.6773172 100.3100235 27.92298889 101.06355286 C11.57039945 117.39898813 -4.77962252 133.7369911 -21.12785352 150.07678819 C-23.54232914 152.49001338 -25.95682673 154.90321661 -28.37133789 157.31640625 C-28.85194073 157.79674678 -29.33254358 158.27708732 -29.82771014 158.77198362 C-37.62192988 166.56184529 -45.41791397 174.34993892 -53.21454246 182.13738966 C-61.22610124 190.13959658 -69.23572224 198.14373857 -77.24365896 206.14957047 C-81.73720841 210.64181593 -86.23163504 215.13317583 -90.72816658 219.62243652 C-94.9549408 223.84243005 -99.17936977 228.064757 -103.40200233 232.28889465 C-104.95234078 233.83895778 -106.5035377 235.38816283 -108.05565262 236.93644714 C-110.17358036 239.04940327 -112.28840411 241.16541864 -114.40248108 243.28222656 C-115.01775274 243.89458538 -115.6330244 244.5069442 -116.26694065 245.13785934 C-118.77612503 247.65582094 -121.09025084 250.11520777 -123.28734493 252.91986084 C-123.8525211 253.60630676 -124.41769728 254.29275269 -125 255 C-125.66 255 -126.32 255 -127 255 C-121.28349493 261.79946835 -115.06534902 268.06477376 -108.7734375 274.32421875 C-107.69660772 275.39917798 -106.62000256 276.47436226 -105.54360962 277.54975891 C-102.73004144 280.35953983 -99.91348549 283.16630644 -97.09625244 285.97241211 C-94.23422609 288.82418831 -91.37504098 291.67880998 -88.515625 294.53320312 C-83.48413188 299.55517144 -78.45018272 304.57466596 -73.41439819 309.59233093 C-71.72222723 311.27978568 -70.03162494 312.96881426 -68.3421936 314.65901184 C-66.75720745 316.24318226 -65.16639599 317.82154221 -63.5703125 319.39453125 C-62.76335937 320.19246094 -61.95640625 320.99039062 -61.125 321.8125 C-60.32320312 322.60269531 -59.52140625 323.39289063 -58.6953125 324.20703125 C-56.68289212 326.29236541 -54.79786477 328.38354301 -52.91943359 330.58276367 C-48.69078695 335.43000575 -44.16301085 339.94469676 -39.59375 344.46875 C-38.71021851 345.34849487 -37.82668701 346.22823975 -36.91638184 347.13464355 C-34.11334867 349.92554506 -31.30720084 352.71329232 -28.5 355.5 C-24.7989945 359.17398738 -21.10168178 362.85165602 -17.40625 366.53125 C-16.14814514 367.77690735 -16.14814514 367.77690735 -14.86462402 369.04772949 C-11.32750804 372.57019903 -7.85655325 376.09801447 -4.60327148 379.88574219 C0.02693077 385.26790898 5.0577949 390.26282817 10.05859375 395.296875 C10.84645106 396.0908456 10.84645106 396.0908456 11.65022469 396.90085602 C14.4343644 399.7057257 17.22168031 402.50739563 20.01147461 405.30664062 C22.28528977 407.58927812 24.55295971 409.87775218 26.81518555 412.171875 C44.73740565 430.44300607 44.73740565 430.44300607 65 446 C65.84796143 446.56106445 66.69592285 447.12212891 67.56958008 447.70019531 C69.57754603 448.96235812 71.59786256 450.12956079 73.6875 451.25 C74.78795654 451.84675537 74.78795654 451.84675537 75.91064453 452.45556641 C104.13427915 467.2985813 139.72922045 474.26516896 171.01953125 465.2578125 C172.34716937 464.84113025 173.67397446 464.4217859 175 464 C176.503754 463.55937589 178.00766564 463.1192895 179.51171875 462.6796875 C193.07321078 458.56718764 205.29840763 452.41346927 217.375 445.0625 C217.99262207 444.6922168 218.61024414 444.32193359 219.24658203 443.94042969 C225.25859481 440.16436857 229.49870372 435.95116665 235 431 C235.33 415.49 235.66 399.98 236 384 C202.34 384 168.68 384 134 384 C134 358.59 134 333.18 134 307 C195.71 307 257.42 307 321 307 C321.2475 328.2025 321.495 349.405 321.75 371.25 C321.91387207 381.23556152 321.91387207 381.23556152 322.08105469 391.42285156 C322.13525391 399.64794922 322.13525391 399.64794922 322.14532471 403.51702881 C322.16358759 406.18152117 322.20068749 408.8388119 322.26690674 411.50189209 C322.71111521 430.19160307 320.67109487 443.0300243 309 458 C308.07279408 459.26690156 307.14971381 460.53683734 306.23162842 461.81036377 C303.91739209 464.96490918 301.49360743 467.98574927 299 471 C298.56864746 471.53141602 298.13729492 472.06283203 297.69287109 472.61035156 C271.88818868 504.39749959 238.00924971 526.34741784 199.3371582 539.21704102 C197.80279892 539.73105859 196.27244809 540.25723284 194.74682617 540.79663086 C189.25235204 542.71484856 183.78102136 544.00254524 178.0625 545.0625 C177.25232422 545.22298828 176.44214844 545.38347656 175.60742188 545.54882812 C161.10905886 548.28997649 146.68009257 549.32031013 131.94384766 549.20581055 C129.44553817 549.18709194 126.94759231 549.18530493 124.44921875 549.18554688 C122.85155927 549.18064577 121.25390229 549.17482371 119.65625 549.16796875 C118.91370972 549.16685593 118.17116943 549.1657431 117.40612793 549.16459656 C112.23247142 549.11623571 112.23247142 549.11623571 110 548 C108.59060404 547.80506808 107.17493179 547.65449845 105.7578125 547.52734375 C86.15188194 545.52245456 67.18120885 540.64649011 49 533 C47.75402907 532.49969402 46.50794428 531.99967147 45.26171875 531.5 C28.35682339 524.40548654 12.55235841 515.13718566 -2 504 C-2.57266602 503.56864746 -3.14533203 503.13729492 -3.73535156 502.69287109 C-20.26485652 490.22060826 -34.65478175 475.50784797 -49.24951172 460.88085938 C-51.86477852 458.25985869 -54.48456349 455.64342706 -57.10567284 453.02827072 C-59.15285261 450.98472746 -61.19761674 448.93878037 -63.24168777 446.89212799 C-64.66876533 445.46407596 -66.09782649 444.03800703 -67.52694702 442.61199951 C-71.29737508 438.82804219 -75.02018443 435.04929619 -78.50048828 430.99511719 C-82.83055398 425.95561644 -87.56447195 421.33076926 -92.28125 416.65625 C-93.26368378 415.67823581 -94.24581488 414.69991749 -95.22766113 413.72131348 C-98.31560571 410.64468605 -101.40748814 407.57203564 -104.5 404.5 C-108.08930463 400.93446097 -111.67688508 397.36722072 -115.26023865 393.79570007 C-116.67991157 392.38241371 -118.10266999 390.97222889 -119.5255127 389.56213379 C-120.40332397 388.68762573 -121.28113525 387.81311768 -122.18554688 386.91210938 C-122.94830933 386.15458374 -123.71107178 385.39705811 -124.49694824 384.61657715 C-127.78007339 381.18454655 -130.87243274 377.57436258 -134 374 C-150.83 357.17 -167.66 340.34 -185 323 C-185.33 389.66 -185.66 456.32 -186 525 C-216.03 525 -246.06 525 -277 525 C-277 352.74 -277 180.48 -277 3 C-246.97 3 -216.94 3 -186 3 C-185.67 64.38 -185.34 125.76 -185 189 C-173.23073148 177.25191499 -173.23073148 177.25191499 -162 165 C-160.50651114 163.43554524 -158.9959758 161.88698893 -157.4609375 160.36328125 C-156.23431396 159.14161255 -156.23431396 159.14161255 -154.98291016 157.89526367 C-154.1222998 157.04295166 -153.26168945 156.19063965 -152.375 155.3125 C-151.01640869 153.95958862 -151.01640869 153.95958862 -149.63037109 152.5793457 C-146.27078694 149.23394556 -142.90668738 145.89311608 -139.54223633 142.5526123 C-136.23365649 139.267082 -132.92897519 135.97766209 -129.625 132.6875 C-128.76438965 131.83518799 -127.9037793 130.98287598 -127.01708984 130.10473633 C-123.43797291 126.54007691 -119.92070755 122.976672 -116.63671875 119.13671875 C-112.30009278 114.09300692 -107.56195959 109.45031975 -102.84365845 104.76849365 C-101.15007138 103.0878576 -99.45979223 101.40395371 -97.77026367 99.71923828 C-93.57638982 95.53861989 -89.37704601 91.3635102 -85.17785645 87.18823242 C-81.61792169 83.64814283 -78.06012179 80.10593278 -74.5050354 76.56097412 C-72.85267468 74.91501894 -71.19729535 73.27214355 -69.54174805 71.62939453 C-63.36374339 65.48929552 -63.36374339 65.48929552 -57.52685547 59.02685547 C-53.12487719 53.88078787 -48.27791134 49.1669957 -43.47507095 44.39990616 C-41.72434299 42.66208983 -39.97688835 40.92103874 -38.23019409 39.1791687 C-34.53128836 35.49160259 -30.82842479 31.80802685 -27.125 28.125 C-22.81016637 23.83378493 -18.49697954 19.5409405 -14.18795395 15.24389267 C-12.46547731 13.52790138 -10.74002167 11.81494413 -9.01443481 10.1020813 C-7.9653686 9.05664524 -6.91644119 8.01106986 -5.86767578 6.96533203 C-4.94947052 6.05236359 -4.03126526 5.13939514 -3.0852356 4.19876099 C-0.96941593 2.18131988 -0.96941593 2.18131988 0 0 Z " fill="#090908" transform="translate(635,360)"/>
  <!-- Inner detail of brand mark -->
  <path d="M0 0 C0.69299194 0.00310181 1.38598389 0.00620361 2.09997559 0.00939941 C39.30041658 0.20345159 75.33930328 7.86477604 108.375 25.25 C109.46071289 25.81678467 109.46071289 25.81678467 110.56835938 26.39501953 C126.38204804 34.70725422 140.7975782 44.64164781 154.375 56.25 C155.10847656 56.87261719 155.84195312 57.49523437 156.59765625 58.13671875 C158.19650194 59.50034659 159.78701178 60.87374354 161.375 62.25 C160.7984559 65.65013186 159.76502339 67.17670485 157.25 69.5 C154.64749677 71.98565614 152.21650436 74.51647907 149.875 77.25 C147.6294206 79.85647609 145.32948488 82.33934521 142.875 84.75 C140.44110268 87.14053167 138.16144441 89.60046262 135.9375 92.1875 C132.96894444 95.63421216 129.83420896 98.84110859 126.5625 102 C124.68412475 103.93204312 122.91682755 105.90281624 121.15234375 107.9375 C117.19929189 112.4890513 113.08254494 116.87362135 108.9375 121.25 C108.20595703 122.02472656 107.47441406 122.79945313 106.72070312 123.59765625 C104.94009786 125.483003 103.15818322 127.36709191 101.375 129.25 C98.08069067 126.43095902 94.78818505 123.61111241 91.5234375 120.7578125 C84.55991891 114.77507118 77.39004021 109.7849551 69.375 105.25 C68.50230469 104.73953125 67.62960937 104.2290625 66.73046875 103.703125 C59.92501582 99.99649471 52.75754891 97.49614963 45.4375 95 C43.95479614 94.48759766 43.95479614 94.48759766 42.44213867 93.96484375 C30.41423048 89.99344859 18.68377183 88.88040917 6.0625 88.9375 C4.79011475 88.94168945 3.51772949 88.94587891 2.20678711 88.95019531 C-7.12696786 89.06222659 -15.59881304 89.87853653 -24.625 92.25 C-25.676875 92.47042969 -26.72875 92.69085937 -27.8125 92.91796875 C-60.0906313 100.56074743 -89.20760889 123.11742047 -106.69189453 150.94824219 C-115.68351075 165.54253721 -121.89662689 181.29043275 -124.625 198.25 C-124.75519531 199.03503906 -124.88539063 199.82007813 -125.01953125 200.62890625 C-127.07528226 216.389664 -125.49404096 232.5634062 -123.625 248.25 C-130.07812115 242.93076351 -135.95094295 237.07000375 -141.8515625 231.15625 C-142.92802619 230.08046138 -144.00463816 229.00482112 -145.08139038 227.92932129 C-147.32704632 225.68513213 -149.57090295 223.43916368 -151.81347656 221.19189453 C-154.67574803 218.3239195 -157.54249577 215.46046753 -160.41060829 212.59833527 C-162.6309973 210.3815736 -164.84898208 208.16241865 -167.06626511 205.94255066 C-168.12200083 204.88615203 -169.17846831 203.83048413 -170.23570633 202.77558899 C-175.25108503 197.76889232 -180.2020212 192.79690465 -184.625 187.25 C-187.45012524 184.30121608 -190.40561888 181.53739079 -193.4296875 178.796875 C-194.78689893 177.53172249 -196.14366127 176.26608806 -197.5 175 C-198.20125 174.38253906 -198.9025 173.76507812 -199.625 173.12890625 C-204.44544806 168.54475467 -204.44544806 168.54475467 -204.93041992 165.04760742 C-204.71344679 162.6767106 -204.26167417 160.54292798 -203.625 158.25 C-203.37169922 157.23752197 -203.37169922 157.23752197 -203.11328125 156.20458984 C-202.54426879 154.12617023 -201.88694908 152.10063912 -201.1875 150.0625 C-200.92727051 149.2998584 -200.66704102 148.5372168 -200.39892578 147.75146484 C-186.59499756 108.60752463 -161.38618653 72.841841 -128.625 47.25 C-127.65304687 46.46109375 -126.68109375 45.6721875 -125.6796875 44.859375 C-112.15661759 34.08158996 -97.26446852 25.56195931 -81.625 18.25 C-80.53574219 17.72921875 -79.44648437 17.2084375 -78.32421875 16.671875 C-53.86082448 5.5388333 -26.81573398 -0.19008953 0 0 Z " fill="#090908" transform="translate(780.625,487.75)"/>
</svg>
